<svg xmlns="http://www.w3.org/2000/svg" xmlns:xlink="http://www.w3.org/1999/xlink" width="24" height="24" viewBox="0 0 24 24">
  <defs>
    <clipPath id="clip-path">
      <rect id="Rectangle_2149" data-name="Rectangle 2149" width="24" height="24" transform="translate(-69 143)" fill="#fff"/>
    </clipPath>
  </defs>
  <g id="drone" transform="translate(69 -143)" clip-path="url(#clip-path)">
    <g id="drone-2" data-name="drone" transform="translate(-67 145)">
      <path id="Path_18" data-name="Path 18" d="M241.576,241a.576.576,0,1,0,.576.576A.576.576,0,0,0,241.576,241Zm0,0" transform="translate(-231.753 -231.753)" fill="#fff"/>
      <path id="Path_19" data-name="Path 19" d="M100.5,102.135a1.151,1.151,0,1,0,1.628-1.628l-1.974-1.973a3.454,3.454,0,0,1,0-4.884l1.974-1.973a1.151,1.151,0,1,0-1.628-1.628l-1.973,1.974a3.454,3.454,0,0,1-4.884,0l-1.973-1.974a1.151,1.151,0,0,0-1.628,1.628l1.974,1.973a3.454,3.454,0,0,1,0,4.884l-1.974,1.973a1.151,1.151,0,1,0,1.628,1.628l1.973-1.974a3.454,3.454,0,0,1,4.884,0Zm-4.415-4.317a1.727,1.727,0,1,1,1.727-1.727A1.729,1.729,0,0,1,96.087,97.818Zm0,0" transform="translate(-86.264 -86.269)" fill="#fff"/>
      <path id="Path_20" data-name="Path 20" d="M303.836,2.966a2.3,2.3,0,0,1,3.256,3.256L305.318,8a4.022,4.022,0,1,0-3.256-3.255Zm0,0" transform="translate(-290.412 0)" fill="#fff"/>
      <path id="Path_21" data-name="Path 21" d="M306.029,302a4.046,4.046,0,0,0-.711.062l1.775,1.774a2.3,2.3,0,0,1-3.255,3.256l-1.775-1.775A4.029,4.029,0,1,0,306.029,302Zm0,0" transform="translate(-290.412 -290.412)" fill="#fff"/>
      <path id="Path_22" data-name="Path 22" d="M4.029,8.058A4.045,4.045,0,0,0,4.74,8L2.966,6.222A2.3,2.3,0,0,1,6.221,2.965L8,4.74A4.029,4.029,0,1,0,4.029,8.058Zm0,0" transform="translate(0 0)" fill="#fff"/>
      <path id="Path_23" data-name="Path 23" d="M6.222,307.092a2.3,2.3,0,0,1-3.256-3.255l1.775-1.775A4.022,4.022,0,1,0,8,305.318Zm0,0" transform="translate(0 -290.412)" fill="#fff"/>
    </g>
  </g>
</svg>
