<svg xmlns="http://www.w3.org/2000/svg" width="92.282" height="108.365" viewBox="0 0 92.282 108.365">
  <g id="pending_yellow" data-name="pending yellow" transform="translate(-0.5 0)">
    <path id="Path_4718" data-name="Path 4718" d="M87.907,72.366a54.672,54.672,0,0,1-13.094,20.4c-6.575,6.421-15.185,11.523-25.591,15.162a7.829,7.829,0,0,1-2.487.439h-.093a7.94,7.94,0,0,1-1.526-.15,8.268,8.268,0,0,1-1.049-.286C33.648,104.3,25.028,99.2,18.446,92.775A54.568,54.568,0,0,1,5.354,72.381C.065,58.028.366,42.217.608,29.512l0-.2c.049-1.049.08-2.151.1-3.368A11.485,11.485,0,0,1,11.525,14.7c12.459-.7,22.1-4.759,30.333-12.786l.072-.066a6.942,6.942,0,0,1,9.424,0l.07.066C59.662,9.938,69.3,14,81.759,14.7A11.485,11.485,0,0,1,92.574,25.948c.017,1.225.049,2.326.1,3.368l0,.083C92.916,42.129,93.215,57.971,87.907,72.366Zm0,0" transform="translate(0 0)" fill="#ffe477"/>
    <path id="Path_4719" data-name="Path 4719" d="M260.121,72.369a54.672,54.672,0,0,1-13.094,20.4c-6.575,6.421-15.185,11.523-25.591,15.162a7.829,7.829,0,0,1-2.487.439V0a6.952,6.952,0,0,1,4.619,1.844l.07.066C231.875,9.941,241.514,14,253.973,14.7a11.485,11.485,0,0,1,10.815,11.251c.017,1.225.049,2.326.1,3.368l0,.083C265.13,42.132,265.429,57.974,260.121,72.369Zm0,0" transform="translate(-172.214 -0.003)" fill="#ffcd00"/>
    <path id="Path_4720" data-name="Path 4720" d="M144.91,155.405A27.041,27.041,0,0,1,118,182.413h-.1a27.007,27.007,0,1,1,0-54.015h.1A27.041,27.041,0,0,1,144.91,155.405Zm0,0" transform="translate(-71.262 -101.222)" fill="#fff"/>
    <path id="Path_4721" data-name="Path 4721" d="M245.861,155.405a27.041,27.041,0,0,1-26.912,27.008V128.4A27.041,27.041,0,0,1,245.861,155.405Zm0,0" transform="translate(-172.214 -101.222)" fill="#e1ebf0"/>
    <path id="Path_4722" data-name="Path 4722" d="M210.289,191.758v12.485a3.18,3.18,0,0,1-6.359,0V191.758a3.18,3.18,0,1,1,6.359,0Zm0,0" transform="translate(-160.374 -148.665)" fill="#b4d2d7"/>
    <path id="Path_4723" data-name="Path 4723" d="M210.289,296.555c0,.1-.007.21-.015.314s-.027.205-.046.309-.047.2-.077.3-.065.2-.106.293-.084.191-.133.282-.1.18-.16.267a2.488,2.488,0,0,1-.184.25,2.91,2.91,0,0,1-.209.233,3.115,3.115,0,0,1-.233.21c-.081.066-.165.127-.25.184a2.912,2.912,0,0,1-.27.161,2.749,2.749,0,0,1-.279.132,2.887,2.887,0,0,1-.294.106c-.1.03-.2.055-.3.077s-.206.036-.308.046a3.125,3.125,0,0,1-.314.015,3.087,3.087,0,0,1-.312-.015c-.1-.011-.207-.026-.309-.046s-.2-.047-.3-.077a2.8,2.8,0,0,1-.294-.106,2.7,2.7,0,0,1-.28-.132,2.9,2.9,0,0,1-.269-.161c-.085-.057-.17-.118-.25-.184a3.018,3.018,0,0,1-.443-.443,2.631,2.631,0,0,1-.184-.25c-.057-.087-.11-.176-.159-.267s-.094-.187-.134-.282-.074-.193-.106-.293-.055-.2-.076-.3-.036-.208-.047-.309-.015-.21-.015-.314.007-.207.015-.312.028-.208.047-.309.046-.2.076-.3.066-.2.106-.293.085-.191.134-.282.1-.182.159-.267a3.042,3.042,0,0,1,.184-.252c.066-.081.138-.159.21-.232s.153-.144.233-.212.165-.127.25-.184.175-.11.269-.159.184-.093.28-.134.194-.074.294-.1a2.344,2.344,0,0,1,.3-.077c.1-.021.206-.036.309-.046a3,3,0,0,1,.312-.017,3.076,3.076,0,0,1,.314.017c.1.011.2.026.308.046a2.354,2.354,0,0,1,.3.077c.1.029.2.065.294.1s.189.085.279.134.183.1.27.159.17.121.25.184.159.138.233.212a3.077,3.077,0,0,1,.209.232,2.855,2.855,0,0,1,.184.252,2.95,2.95,0,0,1,.16.267c.049.091.094.187.133.282a3.084,3.084,0,0,1,.106.293c.03.1.055.2.077.3s.035.206.046.309S210.289,296.451,210.289,296.555Zm0,0" transform="translate(-160.374 -231.282)" fill="#b4d2d7"/>
    <path id="Path_4724" data-name="Path 4724" d="M222.118,296.243c.008.1.015.208.015.312s-.007.21-.015.314-.027.205-.046.309-.047.2-.077.3-.065.2-.106.293-.084.191-.133.282-.1.18-.16.267a2.491,2.491,0,0,1-.184.25,2.91,2.91,0,0,1-.209.233,3.112,3.112,0,0,1-.233.21c-.081.066-.165.127-.25.184a2.91,2.91,0,0,1-.27.161,2.748,2.748,0,0,1-.279.132,2.887,2.887,0,0,1-.294.106c-.1.03-.2.055-.3.077s-.206.036-.308.046a3.125,3.125,0,0,1-.314.015v-6.359a3.076,3.076,0,0,1,.314.017c.1.011.2.026.308.046a2.354,2.354,0,0,1,.3.077c.1.029.2.065.294.1s.189.085.279.134.183.1.27.159.17.121.25.184.159.138.233.212a3.077,3.077,0,0,1,.209.232,2.858,2.858,0,0,1,.184.252,2.95,2.95,0,0,1,.16.267c.049.091.094.187.133.282a3.084,3.084,0,0,1,.106.293c.03.1.055.2.077.3S222.107,296.14,222.118,296.243Zm0,0" transform="translate(-172.217 -231.282)" fill="#6fa5aa"/>
    <path id="Path_4725" data-name="Path 4725" d="M222.133,191.758v12.485a3.181,3.181,0,0,1-3.18,3.18V188.578A3.179,3.179,0,0,1,222.133,191.758Zm0,0" transform="translate(-172.217 -148.665)" fill="#6fa5aa"/>
  </g>
</svg>
